<svg width="1600" height="900" viewBox="0 0 1600 900" fill="none" xmlns="http://www.w3.org/2000/svg">
  <defs>
    <linearGradient id="bg" x1="800" y1="0" x2="800" y2="900" gradientUnits="userSpaceOnUse">
      <stop offset="0" stop-color="#f5f1eb"/>
      <stop offset="0.38" stop-color="#b8c6d5"/>
      <stop offset="1" stop-color="#17334f"/>
    </linearGradient>
    <linearGradient id="gold" x1="0" y1="0" x2="1600" y2="900" gradientUnits="userSpaceOnUse">
      <stop offset="0" stop-color="#9e7a41"/>
      <stop offset="0.34" stop-color="#f2e0b8"/>
      <stop offset="0.68" stop-color="#d2ac6d"/>
      <stop offset="1" stop-color="#8d6a38"/>
    </linearGradient>
    <linearGradient id="glass" x1="0" y1="0" x2="1600" y2="900" gradientUnits="userSpaceOnUse">
      <stop offset="0" stop-color="#ffffff" stop-opacity="0.26"/>
      <stop offset="0.48" stop-color="#ffffff" stop-opacity="0.08"/>
      <stop offset="1" stop-color="#ffffff" stop-opacity="0.02"/>
    </linearGradient>
    <radialGradient id="spot" cx="0" cy="0" r="1" gradientUnits="userSpaceOnUse" gradientTransform="translate(1134 238) rotate(90) scale(142 202)">
      <stop offset="0" stop-color="#ffffff" stop-opacity="0.82"/>
      <stop offset="1" stop-color="#ffffff" stop-opacity="0"/>
    </radialGradient>
  </defs>
  <rect width="1600" height="900" fill="url(#bg)"/>
  <rect x="34" y="24" width="1532" height="852" rx="44" fill="#ffffff" fill-opacity="0.06" stroke="#ffffff" stroke-opacity="0.34"/>
  <rect x="86" y="84" width="1428" height="732" rx="34" fill="url(#glass)" stroke="#ffffff" stroke-opacity="0.24"/>
  <circle cx="1134" cy="238" r="202" fill="url(#spot)"/>

  <g opacity="0.94">
    <path d="M176 662H1424" stroke="url(#gold)" stroke-width="3"/>
    <path d="M210 662V456" stroke="url(#gold)" stroke-width="3"/>
    <path d="M280 662V392" stroke="url(#gold)" stroke-width="3"/>
    <path d="M356 662V420" stroke="url(#gold)" stroke-width="3"/>
    <path d="M430 662V328" stroke="url(#gold)" stroke-width="3"/>
    <path d="M516 662V276" stroke="url(#gold)" stroke-width="3"/>
    <path d="M610 662V228" stroke="url(#gold)" stroke-width="3"/>
    <path d="M724 662V304" stroke="url(#gold)" stroke-width="3"/>
    <path d="M824 662V252" stroke="url(#gold)" stroke-width="3"/>
    <path d="M938 662V212" stroke="url(#gold)" stroke-width="3"/>
    <path d="M1034 662V288" stroke="url(#gold)" stroke-width="3"/>
    <path d="M1128 662V356" stroke="url(#gold)" stroke-width="3"/>
    <path d="M1212 662V438" stroke="url(#gold)" stroke-width="3"/>
    <path d="M1294 662V488" stroke="url(#gold)" stroke-width="3"/>
    <path d="M1382 662V546" stroke="url(#gold)" stroke-width="3"/>
  </g>

  <g fill="#f4f8fb" opacity="0.22">
    <rect x="214" y="456" width="46" height="206"/>
    <rect x="286" y="392" width="58" height="270"/>
    <rect x="362" y="420" width="52" height="242"/>
    <rect x="436" y="328" width="62" height="334"/>
    <rect x="522" y="276" width="74" height="386"/>
    <rect x="616" y="228" width="88" height="434"/>
    <rect x="730" y="304" width="76" height="358"/>
    <rect x="830" y="252" width="86" height="410"/>
    <rect x="944" y="212" width="74" height="450"/>
    <rect x="1040" y="288" width="72" height="374"/>
    <rect x="1134" y="356" width="58" height="306"/>
    <rect x="1218" y="438" width="54" height="224"/>
    <rect x="1300" y="488" width="50" height="174"/>
    <rect x="1388" y="546" width="36" height="116"/>
  </g>

  <g opacity="0.98">
    <rect x="378" y="166" width="844" height="394" rx="28" fill="#17304d" fill-opacity="0.74" stroke="url(#gold)" stroke-width="4"/>
    <rect x="414" y="204" width="772" height="318" rx="20" fill="#203d5f" fill-opacity="0.66" stroke="#ffffff" stroke-opacity="0.16"/>
    <path d="M486 480H1112" stroke="#ffffff" stroke-opacity="0.12" stroke-width="2"/>
    <path d="M486 416H1112" stroke="#ffffff" stroke-opacity="0.08" stroke-width="2"/>
    <path d="M486 352H1112" stroke="#ffffff" stroke-opacity="0.08" stroke-width="2"/>
    <path d="M624 204V522" stroke="#ffffff" stroke-opacity="0.12" stroke-width="2"/>
    <path d="M786 204V522" stroke="#ffffff" stroke-opacity="0.1" stroke-width="2"/>
    <path d="M948 204V522" stroke="#ffffff" stroke-opacity="0.12" stroke-width="2"/>
  </g>

  <g stroke="url(#gold)" stroke-width="6" stroke-linecap="round" stroke-linejoin="round" fill="none">
    <path d="M744 608C780 580 820 580 856 608"/>
    <path d="M724 642C772 602 828 602 876 642"/>
    <path d="M700 678C762 626 838 626 900 678"/>
    <path d="M770 678V742"/>
    <path d="M830 678V742"/>
    <path d="M716 742H884"/>
    <path d="M800 564V604"/>
  </g>
</svg>
