<svg width="1600" height="900" viewBox="0 0 1600 900" fill="none" xmlns="http://www.w3.org/2000/svg">
  <defs>
    <linearGradient id="bg" x1="800" y1="0" x2="800" y2="900" gradientUnits="userSpaceOnUse">
      <stop offset="0" stop-color="#dbe2ef"/>
      <stop offset="0.52" stop-color="#8fa3c4"/>
      <stop offset="1" stop-color="#0e2d57"/>
    </linearGradient>
    <linearGradient id="panelGlow" x1="140" y1="130" x2="1400" y2="760" gradientUnits="userSpaceOnUse">
      <stop offset="0" stop-color="#ffffff" stop-opacity="0.30"/>
      <stop offset="0.42" stop-color="#dbe8ff" stop-opacity="0.16"/>
      <stop offset="1" stop-color="#0f274e" stop-opacity="0.08"/>
    </linearGradient>
    <linearGradient id="globe" x1="800" y1="210" x2="800" y2="690" gradientUnits="userSpaceOnUse">
      <stop offset="0" stop-color="#173d78"/>
      <stop offset="1" stop-color="#0a2044"/>
    </linearGradient>
    <linearGradient id="gold" x1="397" y1="450" x2="1203" y2="450" gradientUnits="userSpaceOnUse">
      <stop offset="0" stop-color="#b28d4b"/>
      <stop offset="0.28" stop-color="#f5deb0"/>
      <stop offset="0.54" stop-color="#d3ac68"/>
      <stop offset="0.8" stop-color="#f0d6a1"/>
      <stop offset="1" stop-color="#aa8342"/>
    </linearGradient>
    <linearGradient id="lightLine" x1="0" y1="72" x2="0" y2="770" gradientUnits="userSpaceOnUse">
      <stop offset="0" stop-color="#ffffff" stop-opacity="0.04"/>
      <stop offset="0.55" stop-color="#ffffff" stop-opacity="0.54"/>
      <stop offset="1" stop-color="#ffffff" stop-opacity="0"/>
    </linearGradient>
    <radialGradient id="baseGlow" cx="0" cy="0" r="1" gradientUnits="userSpaceOnUse" gradientTransform="translate(800 694) rotate(90) scale(58 210)">
      <stop offset="0" stop-color="#f4fbff" stop-opacity="0.95"/>
      <stop offset="0.46" stop-color="#78b9ff" stop-opacity="0.52"/>
      <stop offset="1" stop-color="#78b9ff" stop-opacity="0"/>
    </radialGradient>
    <filter id="softBlur" x="-20%" y="-20%" width="140%" height="140%">
      <feGaussianBlur stdDeviation="10"/>
    </filter>
    <filter id="shadow" x="-20%" y="-20%" width="140%" height="140%">
      <feDropShadow dx="0" dy="20" stdDeviation="24" flood-color="#0d2240" flood-opacity="0.22"/>
    </filter>
    <clipPath id="globeClip">
      <circle cx="800" cy="432" r="242"/>
    </clipPath>
  </defs>

  <rect width="1600" height="900" fill="url(#bg)"/>
  <rect x="36" y="24" width="1528" height="852" rx="42" fill="url(#panelGlow)" stroke="#F2F6FF" stroke-opacity="0.38"/>

  <g opacity="0.9">
    <g fill="url(#lightLine)">
      <rect x="106" y="360" width="4" height="366" rx="2"/>
      <rect x="160" y="312" width="3" height="430" rx="1.5"/>
      <rect x="210" y="270" width="4" height="470" rx="2"/>
      <rect x="286" y="326" width="3" height="380" rx="1.5"/>
      <rect x="354" y="214" width="4" height="530" rx="2"/>
      <rect x="422" y="250" width="3" height="462" rx="1.5"/>
      <rect x="468" y="172" width="4" height="566" rx="2"/>
      <rect x="558" y="238" width="3" height="486" rx="1.5"/>
      <rect x="634" y="152" width="4" height="590" rx="2"/>
      <rect x="720" y="186" width="3" height="526" rx="1.5"/>
      <rect x="796" y="120" width="4" height="618" rx="2"/>
      <rect x="880" y="180" width="3" height="532" rx="1.5"/>
      <rect x="970" y="144" width="4" height="592" rx="2"/>
      <rect x="1058" y="232" width="3" height="474" rx="1.5"/>
      <rect x="1138" y="168" width="4" height="560" rx="2"/>
      <rect x="1232" y="252" width="3" height="442" rx="1.5"/>
      <rect x="1310" y="206" width="4" height="504" rx="2"/>
      <rect x="1400" y="274" width="3" height="404" rx="1.5"/>
      <rect x="1472" y="338" width="4" height="320" rx="2"/>
    </g>

    <g fill="#F6FBFF" opacity="0.82">
      <circle cx="108" cy="366" r="10"/>
      <circle cx="162" cy="318" r="11"/>
      <circle cx="212" cy="276" r="10"/>
      <circle cx="288" cy="332" r="8"/>
      <circle cx="356" cy="220" r="10"/>
      <circle cx="424" cy="256" r="8"/>
      <circle cx="470" cy="178" r="9"/>
      <circle cx="560" cy="244" r="10"/>
      <circle cx="636" cy="158" r="8"/>
      <circle cx="722" cy="192" r="10"/>
      <circle cx="798" cy="126" r="10"/>
      <circle cx="882" cy="186" r="8"/>
      <circle cx="972" cy="150" r="10"/>
      <circle cx="1060" cy="238" r="8"/>
      <circle cx="1140" cy="174" r="9"/>
      <circle cx="1234" cy="258" r="10"/>
      <circle cx="1312" cy="212" r="9"/>
      <circle cx="1402" cy="280" r="10"/>
      <circle cx="1474" cy="344" r="11"/>
      <circle cx="286" cy="518" r="10"/>
      <circle cx="468" cy="430" r="10"/>
      <circle cx="634" cy="560" r="10"/>
      <circle cx="970" cy="498" r="10"/>
      <circle cx="1232" cy="546" r="9"/>
      <circle cx="1400" cy="600" r="10"/>
    </g>
  </g>

  <ellipse cx="800" cy="708" rx="232" ry="54" fill="url(#baseGlow)" filter="url(#softBlur)"/>

  <g filter="url(#shadow)">
    <circle cx="800" cy="432" r="252" fill="#f5f9ff" fill-opacity="0.32"/>
    <circle cx="800" cy="432" r="242" fill="url(#globe)"/>
    <circle cx="800" cy="432" r="242" stroke="url(#gold)" stroke-width="9"/>
  </g>

  <g clip-path="url(#globeClip)" fill="#F7FBFF">
    <path d="M603 334C639 297 689 272 741 268C708 306 700 344 710 382C666 384 628 367 603 334Z" opacity="0.96"/>
    <path d="M713 286C770 252 853 244 918 272C895 292 885 318 887 345C845 349 816 367 794 394C752 384 725 340 713 286Z" opacity="0.98"/>
    <path d="M933 287C987 299 1038 333 1071 382C1043 386 1020 398 1002 418C965 395 940 349 933 287Z" opacity="0.97"/>
    <path d="M669 448C712 430 750 438 783 459C758 491 749 530 757 574C711 572 670 553 637 520C644 492 655 466 669 448Z" opacity="0.96"/>
    <path d="M822 442C862 424 912 427 955 445C956 490 977 533 1011 567C972 590 929 604 882 608C857 565 836 510 822 442Z" opacity="0.98"/>
    <path d="M1039 449C1077 462 1108 487 1132 520C1109 542 1094 571 1089 607C1042 596 999 572 965 536C991 503 1017 473 1039 449Z" opacity="0.94"/>
  </g>

  <g stroke="url(#gold)" stroke-width="10" fill="none" stroke-linecap="round">
    <ellipse cx="800" cy="446" rx="400" ry="144"/>
    <path d="M648 196L648 668"/>
    <path d="M952 196L952 668"/>
  </g>

  <g stroke="#F7FBFF" stroke-width="10" stroke-linecap="round" stroke-linejoin="round" fill="none">
    <path d="M744 610C780 580 820 580 856 610"/>
    <path d="M728 642C774 603 826 603 872 642"/>
    <path d="M708 676C766 628 834 628 892 676"/>
    <path d="M772 676V738"/>
    <path d="M828 676V738"/>
    <path d="M716 738H884"/>
    <path d="M800 560V602"/>
  </g>

  <g opacity="0.24" fill="#ffffff">
    <circle cx="522" cy="184" r="54"/>
    <circle cx="1102" cy="168" r="42"/>
    <circle cx="1246" cy="704" r="36"/>
  </g>
</svg>
