<svg xmlns="http://www.w3.org/2000/svg" width="960" height="540" viewBox="0 0 960 540" role="img" aria-labelledby="title desc">
  <title id="title">日本不動產物件圖備援</title>
  <desc id="desc">站內圖片連結失效時使用的物件備援主圖。</desc>
  <defs>
    <linearGradient id="bg" x1="0" x2="1" y1="0" y2="1">
      <stop offset="0" stop-color="#eef5ff"/>
      <stop offset="0.52" stop-color="#f8fbff"/>
      <stop offset="1" stop-color="#dbe8f7"/>
    </linearGradient>
    <linearGradient id="tower" x1="0" x2="0" y1="0" y2="1">
      <stop offset="0" stop-color="#244f8f"/>
      <stop offset="1" stop-color="#10294e"/>
    </linearGradient>
    <linearGradient id="gold" x1="0" x2="1" y1="0" y2="1">
      <stop offset="0" stop-color="#f6d589"/>
      <stop offset="1" stop-color="#b8872e"/>
    </linearGradient>
    <filter id="shadow" x="-20%" y="-20%" width="140%" height="140%">
      <feDropShadow dx="0" dy="14" stdDeviation="18" flood-color="#12305a" flood-opacity="0.22"/>
    </filter>
  </defs>
  <rect width="960" height="540" rx="28" fill="url(#bg)"/>
  <g opacity="0.32" stroke="#7ea2cf" stroke-width="2">
    <path d="M92 418H868"/>
    <path d="M164 368H796"/>
    <path d="M230 318H730"/>
    <path d="M310 268H650"/>
  </g>
  <g opacity="0.42" stroke="#ffffff" stroke-width="3">
    <path d="M145 95V430"/>
    <path d="M815 80V430"/>
    <path d="M230 70V430"/>
    <path d="M720 112V430"/>
    <circle cx="145" cy="95" r="8" fill="#fff"/>
    <circle cx="815" cy="80" r="8" fill="#fff"/>
    <circle cx="230" cy="70" r="8" fill="#fff"/>
    <circle cx="720" cy="112" r="8" fill="#fff"/>
  </g>
  <g filter="url(#shadow)">
    <rect x="312" y="150" width="146" height="268" rx="10" fill="url(#tower)"/>
    <rect x="486" y="116" width="166" height="302" rx="10" fill="#173864"/>
    <rect x="402" y="204" width="122" height="214" rx="8" fill="#1c4478"/>
    <path d="M284 418H690" stroke="url(#gold)" stroke-width="10" stroke-linecap="round"/>
    <g fill="#f7fbff" opacity="0.88">
      <rect x="334" y="180" width="24" height="18" rx="3"/>
      <rect x="374" y="180" width="24" height="18" rx="3"/>
      <rect x="414" y="180" width="24" height="18" rx="3"/>
      <rect x="334" y="226" width="24" height="18" rx="3"/>
      <rect x="374" y="226" width="24" height="18" rx="3"/>
      <rect x="414" y="226" width="24" height="18" rx="3"/>
      <rect x="512" y="150" width="28" height="20" rx="3"/>
      <rect x="560" y="150" width="28" height="20" rx="3"/>
      <rect x="608" y="150" width="28" height="20" rx="3"/>
      <rect x="512" y="202" width="28" height="20" rx="3"/>
      <rect x="560" y="202" width="28" height="20" rx="3"/>
      <rect x="608" y="202" width="28" height="20" rx="3"/>
      <rect x="432" y="232" width="24" height="18" rx="3"/>
      <rect x="472" y="232" width="24" height="18" rx="3"/>
      <rect x="432" y="280" width="24" height="18" rx="3"/>
      <rect x="472" y="280" width="24" height="18" rx="3"/>
    </g>
  </g>
  <g fill="#17305f" text-anchor="middle" font-family="Arial, sans-serif">
    <text x="480" y="470" font-size="28" font-weight="700">日本不動產物件圖</text>
    <text x="480" y="504" font-size="18" opacity="0.72">圖片連結失效時，請進入站內明細或開啟原站查看相簿</text>
  </g>
</svg>
