<svg xmlns="http://www.w3.org/2000/svg" viewBox="0 0 1200 900" role="img" aria-label="土地物件示意图">
  <defs>
    <linearGradient id="sky" x1="0" y1="0" x2="0" y2="1">
      <stop offset="0" stop-color="#d9e8ee"/>
      <stop offset="0.6" stop-color="#f5f8f5"/>
      <stop offset="1" stop-color="#d8e4d2"/>
    </linearGradient>
    <linearGradient id="field" x1="0" y1="0" x2="1" y2="1">
      <stop offset="0" stop-color="#b8c79d"/>
      <stop offset="0.55" stop-color="#7f9670"/>
      <stop offset="1" stop-color="#536b57"/>
    </linearGradient>
    <linearGradient id="road" x1="0" y1="0" x2="1" y2="0">
      <stop offset="0" stop-color="#e7e0d0"/>
      <stop offset="1" stop-color="#b9aa91"/>
    </linearGradient>
  </defs>
  <rect width="1200" height="900" fill="url(#sky)"/>
  <path d="M0 560 C160 520 265 536 390 500 C530 460 650 430 820 456 C970 480 1085 430 1200 392 L1200 900 L0 900 Z" fill="url(#field)"/>
  <path d="M0 732 C210 690 398 660 600 674 C792 687 978 760 1200 728 L1200 900 L0 900 Z" fill="#405846" opacity=".42"/>
  <path d="M-40 860 C178 760 408 704 640 690 C842 678 1010 704 1250 648 L1250 760 C1010 815 842 796 650 808 C438 821 225 866 -20 940 Z" fill="url(#road)" opacity=".9"/>
  <path d="M128 545 L1064 384" fill="none" stroke="#f8faf7" stroke-width="7" stroke-linecap="round" opacity=".68"/>
  <path d="M210 580 L1036 438" fill="none" stroke="#33483e" stroke-width="4" stroke-dasharray="18 18" opacity=".35"/>
  <g fill="#273b36" opacity=".58">
    <rect x="126" y="515" width="9" height="76" rx="4"/>
    <rect x="1058" y="353" width="9" height="76" rx="4"/>
    <rect x="520" y="454" width="9" height="76" rx="4"/>
  </g>
  <g fill="#31493f" opacity=".72">
    <path d="M180 406 c44 -76 102 -76 147 0 Z"/>
    <rect x="236" y="406" width="36" height="98" rx="18"/>
    <path d="M946 320 c32 -56 78 -56 110 0 Z"/>
    <rect x="987" y="320" width="28" height="76" rx="14"/>
  </g>
  <rect x="72" y="70" width="340" height="110" rx="30" fill="#14263a" opacity=".72"/>
  <text x="116" y="135" fill="#fff" font-family="Arial, Helvetica, sans-serif" font-size="42" font-weight="700">土地物件</text>
</svg>
