<svg xmlns="http://www.w3.org/2000/svg" viewBox="0 0 1200 900" role="img" aria-label="办公物件示意图">
  <defs><linearGradient id="b" x1="0" y1="0" x2="1" y2="1"><stop offset="0" stop-color="#eef4f6"/><stop offset="1" stop-color="#7d8f9b"/></linearGradient></defs>
  <rect width="1200" height="900" fill="url(#b)"/>
  <rect x="250" y="180" width="700" height="560" rx="20" fill="#dce5e7"/>
  <g fill="#263f53" opacity=".8">
    <rect x="310" y="245" width="110" height="70" rx="8"/><rect x="470" y="245" width="110" height="70" rx="8"/><rect x="630" y="245" width="110" height="70" rx="8"/><rect x="790" y="245" width="110" height="70" rx="8"/>
    <rect x="310" y="370" width="110" height="70" rx="8"/><rect x="470" y="370" width="110" height="70" rx="8"/><rect x="630" y="370" width="110" height="70" rx="8"/><rect x="790" y="370" width="110" height="70" rx="8"/>
    <rect x="310" y="495" width="110" height="70" rx="8"/><rect x="470" y="495" width="110" height="70" rx="8"/><rect x="630" y="495" width="110" height="70" rx="8"/><rect x="790" y="495" width="110" height="70" rx="8"/>
  </g>
  <rect x="530" y="620" width="140" height="120" rx="14" fill="#526b80"/>
  <rect x="72" y="70" width="300" height="110" rx="30" fill="#14263a" opacity=".75"/>
  <text x="116" y="135" fill="#fff" font-family="Arial, Helvetica, sans-serif" font-size="42" font-weight="700">办公</text>
</svg>
