<svg xmlns="http://www.w3.org/2000/svg" viewBox="0 0 1200 900" role="img" aria-label="大楼物件示意图">
  <defs><linearGradient id="b" x1="0" y1="0" x2="0" y2="1"><stop offset="0" stop-color="#dce8ef"/><stop offset="1" stop-color="#8293a2"/></linearGradient><linearGradient id="t" x1="0" y1="0" x2="1" y2="1"><stop offset="0" stop-color="#f8fbfb"/><stop offset="1" stop-color="#aab8bf"/></linearGradient></defs>
  <rect width="1200" height="900" fill="url(#b)"/>
  <path d="M450 110h310l48 705H394z" fill="url(#t)"/>
  <path d="M498 170h210v645H498z" fill="#e9eeee"/>
  <g fill="#253d53" opacity=".82">
    <rect x="525" y="210" width="54" height="50" rx="7"/><rect x="626" y="210" width="54" height="50" rx="7"/>
    <rect x="525" y="300" width="54" height="50" rx="7"/><rect x="626" y="300" width="54" height="50" rx="7"/>
    <rect x="525" y="390" width="54" height="50" rx="7"/><rect x="626" y="390" width="54" height="50" rx="7"/>
    <rect x="525" y="480" width="54" height="50" rx="7"/><rect x="626" y="480" width="54" height="50" rx="7"/>
    <rect x="525" y="570" width="54" height="50" rx="7"/><rect x="626" y="570" width="54" height="50" rx="7"/>
  </g>
  <rect x="72" y="70" width="300" height="110" rx="30" fill="#14263a" opacity=".75"/>
  <text x="116" y="135" fill="#fff" font-family="Arial, Helvetica, sans-serif" font-size="42" font-weight="700">大楼</text>
</svg>
